<svg width="129" height="129" viewBox="0 0 129 129">
  <g fill="none" fill-rule="evenodd">
    <g transform="translate(0 .035)">
      <path fill="#A6A8AB" d="M128.579041,64.2894519 C128.579041,99.7954484 99.7956307,128.578858 64.2894064,128.578858 C28.7834099,128.578858 -8.52651283e-14,99.7954484 -8.52651283e-14,64.2894519 C-8.52651283e-14,28.7834555 28.7834099,4.55830389e-05 64.2894064,4.55830389e-05 C99.7956307,4.55830389e-05 128.579041,28.7834555 128.579041,64.2894519"/>
      <path fill="#939597" d="M64.2894747,0 C28.7832504,0 6.83745583e-05,28.7834099 6.83745583e-05,64.2894064 C6.83745583e-05,99.7954028 28.7832504,128.578813 64.2894747,128.578813 C99.7956991,128.578813 128.579109,99.7954028 128.579109,64.2894064 C128.579109,28.7834099 99.7956991,0 64.2894747,0 M64.2894747,1.36749117 C72.7845578,1.36749117 81.0246037,3.03104417 88.7810136,6.31165548 C96.2734977,9.48081625 103.002922,14.017924 108.781939,19.7967138 C114.561185,25.5759594 119.098293,32.3051555 122.267226,39.7978675 C125.548065,47.5540495 127.211618,55.7945512 127.211618,64.2894064 C127.211618,72.7844894 125.548065,81.0247633 122.267226,88.7809452 C119.098293,96.2736572 114.561185,103.003081 108.781939,108.782099 C103.002922,114.560889 96.2734977,119.098224 88.7810136,122.267385 C81.0246037,125.547996 72.7845578,127.211322 64.2894747,127.211322 C55.7946196,127.211322 47.5543458,125.547996 39.7979359,122.267385 C32.3054518,119.098224 25.5760277,114.560889 19.7970101,108.782099 C14.0179924,103.003081 9.48065671,96.2736572 6.31172385,88.7809452 C3.03111254,81.0247633 1.36755954,72.7844894 1.36755954,64.2894064 C1.36755954,55.7945512 3.03111254,47.5540495 6.31172385,39.7978675 C9.48065671,32.3051555 14.0179924,25.5759594 19.7970101,19.7967138 C25.5760277,14.017924 32.3054518,9.48081625 39.7979359,6.31165548 C47.5543458,3.03104417 55.7946196,1.36749117 64.2894747,1.36749117"/>
      <path fill="#FEFEFE" d="M64.2894747,7.99437615 C33.1984235,7.99437615 7.99442173,33.1986058 7.99442173,64.2894292 C7.99442173,95.3802525 33.1984235,120.584482 64.2894747,120.584482 C95.380526,120.584482 120.584756,95.3802525 120.584756,64.2894292 C120.584756,33.1986058 95.380526,7.99437615 64.2894747,7.99437615 M64.2894747,8.90603693 C71.7666885,8.90603693 79.0194058,10.370392 85.8468334,13.2580776 C92.4417875,16.0473037 98.3648475,20.0408337 103.451459,25.1274451 C108.53807,30.2140564 112.5316,36.1371164 115.321054,42.7320705 C118.20874,49.5592701 119.673095,56.8122154 119.673095,64.2894292 C119.673095,71.7666429 118.20874,79.0195882 115.321054,85.8467878 C112.5316,92.4417419 108.53807,98.3648019 103.451459,103.451413 C98.3648475,108.538252 92.4417875,112.531555 85.8468334,115.320781 C79.0194058,118.208694 71.7666885,119.672821 64.2894747,119.672821 C56.812261,119.672821 49.5595436,118.208694 42.7321161,115.320781 C36.137162,112.531555 30.2141019,108.538252 25.1274906,103.451413 C20.0408793,98.3648019 16.0475772,92.4417419 13.2581231,85.8467878 C10.3702097,79.0195882 8.90608251,71.7666429 8.90608251,64.2894292 C8.90608251,56.8122154 10.3702097,49.5592701 13.2581231,42.7320705 C16.0475772,36.1371164 20.0408793,30.2140564 25.1274906,25.1274451 C30.2141019,20.0408337 36.137162,16.0473037 42.7321161,13.2580776 C49.5595436,10.370392 56.812261,8.90603693 64.2894747,8.90603693"/>
      <path fill="#939597" fill-rule="nonzero" d="M63.2700684,50.2721988 C68.4000684,50.2721988 70.6050684,52.6571988 70.6050684,57.5171988 L70.6050684,58.6421988 C70.6050684,61.8821988 69.6150684,63.9521988 67.4100684,64.9871988 C70.0650684,66.0221988 71.1000684,68.4071988 71.1000684,71.7371988 L71.1000684,74.3021988 C71.1000684,79.1621988 68.5350684,81.7721988 63.5850684,81.7721988 L55.8000684,81.7721988 L55.8000684,50.2721988 L63.2700684,50.2721988 Z M62.9550684,67.5971988 L60.7500684,67.5971988 L60.7500684,77.2721988 L63.5850684,77.2721988 C65.2500684,77.2721988 66.1500684,76.5071988 66.1500684,74.1671988 L66.1500684,71.4221988 C66.1500684,68.4971988 65.2050684,67.5971988 62.9550684,67.5971988 Z M63.1350684,54.7721988 L60.7500684,54.7721988 L60.7500684,63.0971988 L62.6850684,63.0971988 C64.5300684,63.0971988 65.6550684,62.2871988 65.6550684,59.7671988 L65.6550684,58.0121988 C65.6550684,55.7621988 64.8900684,54.7721988 63.1350684,54.7721988 Z"/>
      <path fill="#FFF" fill-rule="nonzero" d="M61.2700684,48.2721988 C66.4000684,48.2721988 68.6050684,50.6571988 68.6050684,55.5171988 L68.6050684,56.6421988 C68.6050684,59.8821988 67.6150684,61.9521988 65.4100684,62.9871988 C68.0650684,64.0221988 69.1000684,66.4071988 69.1000684,69.7371988 L69.1000684,72.3021988 C69.1000684,77.1621988 66.5350684,79.7721988 61.5850684,79.7721988 L53.8000684,79.7721988 L53.8000684,48.2721988 L61.2700684,48.2721988 Z M60.9550684,65.5971988 L58.7500684,65.5971988 L58.7500684,75.2721988 L61.5850684,75.2721988 C63.2500684,75.2721988 64.1500684,74.5071988 64.1500684,72.1671988 L64.1500684,69.4221988 C64.1500684,66.4971988 63.2050684,65.5971988 60.9550684,65.5971988 Z M61.1350684,52.7721988 L58.7500684,52.7721988 L58.7500684,61.0971988 L60.6850684,61.0971988 C62.5300684,61.0971988 63.6550684,60.2871988 63.6550684,57.7671988 L63.6550684,56.0121988 C63.6550684,53.7621988 62.8900684,52.7721988 61.1350684,52.7721988 Z"/>
      <path fill="#939597" fill-rule="nonzero" d="M87.7800684,50.2721988 L92.8200684,81.7721988 L87.8250684,81.7721988 L86.9700684,76.0571988 L80.8950684,76.0571988 L80.0400684,81.7721988 L75.4950684,81.7721988 L80.5350684,50.2721988 L87.7800684,50.2721988 Z M83.9100684,55.8521988 L81.5250684,71.7821988 L86.2950684,71.7821988 L83.9100684,55.8521988 Z"/>
      <path fill="#FFF" fill-rule="nonzero" d="M85.7800684,48.2721988 L90.8200684,79.7721988 L85.8250684,79.7721988 L84.9700684,74.0571988 L78.8950684,74.0571988 L78.0400684,79.7721988 L73.4950684,79.7721988 L78.5350684,48.2721988 L85.7800684,48.2721988 Z M81.9100684,53.8521988 L79.5250684,69.7821988 L84.2950684,69.7821988 L81.9100684,53.8521988 Z"/>
      <path fill="#939597" fill-rule="nonzero" d="M31.0200684,73.1771988 L16.3500684,67.7771988 L16.3500684,64.2671988 L31.0200684,58.8671988 L31.0200684,62.4221988 L20.9400684,66.0221988 L31.0200684,69.6221988 L31.0200684,73.1771988 Z M33.0450684,81.7721988 L45.4650684,50.2721988 L49.7400684,50.2721988 L37.3200684,81.7721988 L33.0450684,81.7721988 Z"/>
      <path fill="#FFF" fill-rule="nonzero" d="M29.0200684,71.1771988 L14.3500684,65.7771988 L14.3500684,62.2671988 L29.0200684,56.8671988 L29.0200684,60.4221988 L18.9400684,64.0221988 L29.0200684,67.6221988 L29.0200684,71.1771988 Z M31.0450684,79.7721988 L43.4650684,48.2721988 L47.7400684,48.2721988 L35.3200684,79.7721988 L31.0450684,79.7721988 Z"/>
      <polygon fill="#939597" fill-rule="nonzero" points="114.47 67.777 99.8 73.177 99.8 69.622 109.88 66.022 99.8 62.422 99.8 58.867 114.47 64.267"/>
      <polygon fill="#FFF" fill-rule="nonzero" points="112.47 65.777 97.8 71.177 97.8 67.622 107.88 64.022 97.8 60.422 97.8 56.867 112.47 62.267"/>
    </g>
  </g>
</svg>
